<svg width="24" height="24" viewBox="0 0 24 24" fill="none" xmlns="http://www.w3.org/2000/svg">
<path d="M19.7328 5.4685L14.2672 2.55826C12.8635 1.81391 11.1365 1.81391 9.73284 2.55826L4.26716 5.4685C2.86618 6.21717 2.00265 7.59639 2 9.08957V14.91C2.0027 16.4034 2.86618 17.7829 4.26716 18.5319L9.73284 21.4413C11.1364 22.1862 12.8636 22.1862 14.2672 21.4413L19.7328 18.5319C21.1338 17.7829 21.9973 16.4034 22 14.91V9.08957C21.9974 7.59639 21.1338 6.21717 19.7328 5.4685ZM10.6397 4.00753C11.4815 3.55937 12.5185 3.55937 13.3603 4.00753L18.826 6.91693C18.9646 6.99771 19.0948 7.09009 19.215 7.1929L13.5988 10.1826C12.6093 10.7086 11.3907 10.7086 10.4012 10.1826L4.78498 7.1929C4.9052 7.09009 5.03543 6.99771 5.17403 6.91693L10.6397 4.00753ZM5.17403 17.0827C4.33283 16.6332 3.8146 15.8049 3.81373 14.9084V9.08957C3.82003 8.93891 3.84158 8.78912 3.87812 8.64216L9.49433 11.6318C9.99033 11.892 10.5311 12.0717 11.0931 12.1629V20.1652C10.9365 20.121 10.7847 20.0633 10.6397 19.9929L5.17403 17.0827ZM20.1863 14.9084C20.1854 15.8049 19.6672 16.6332 18.826 17.0827L13.3603 19.9929C13.2153 20.0633 13.0635 20.121 12.9069 20.1652V12.1629C13.4689 12.0717 14.0097 11.892 14.5057 11.6318L20.1219 8.64216C20.1584 8.78912 20.18 8.93891 20.1863 9.08957V14.9084Z" fill="#8295B5"/>
</svg>
