<svg width="24" height="24" viewBox="0 0 24 24" fill="none" xmlns="http://www.w3.org/2000/svg">
<path d="M23 19.7778V4.22222C23.552 4.22222 24 3.72444 24 3.11111C24 2.49778 23.552 2 23 2H0.999993C0.447993 2 0 2.49778 0 3.11111C0 3.72444 0.447993 4.22222 0.999993 4.22222V19.7778C0.447993 19.7778 0 20.2756 0 20.8889C0 21.5022 0.447993 22 0.999993 22H23C23.552 22 24 21.5022 24 20.8889C24 20.2756 23.552 19.7778 23 19.7778ZM3 4.22222H21V19.7778H3V4.22222ZM18 7.55556V16.4444C18 17.0578 17.552 17.5556 17 17.5556C16.448 17.5556 16 17.0578 16 16.4444V7.55556C16 6.94222 16.448 6.44444 17 6.44444C17.552 6.44444 18 6.94222 18 7.55556ZM13 7.55556V16.4444C13 17.0578 12.552 17.5556 12 17.5556C11.448 17.5556 11 17.0578 11 16.4444V7.55556C11 6.94222 11.448 6.44444 12 6.44444C12.552 6.44444 13 6.94222 13 7.55556ZM8 7.55556V16.4444C8 17.0578 7.552 17.5556 7 17.5556C6.448 17.5556 6 17.0578 6 16.4444V7.55556C6 6.94222 6.448 6.44444 7 6.44444C7.552 6.44444 8 6.94222 8 7.55556Z" fill="#8295B5"/>
</svg>
