<svg width="24" height="24" viewBox="0 0 24 24" fill="none" xmlns="http://www.w3.org/2000/svg">
<path d="M16.2768 7.62311H7.72439C3 7.62311 3 4.87338 3 3.55183V2.92905C3 2.41632 3.43861 2 3.97882 2H20.0212C20.5614 2 21 2.41632 21 2.92905V3.55183C21 4.87338 21 7.62311 16.2768 7.62311ZM4.95883 3.85811C4.97676 4.98115 5.18352 5.765 7.72439 5.765H16.2768C18.8165 5.765 19.0232 4.98115 19.0412 3.85811H4.95883Z" fill="#8295B5"/>
<path d="M20.8045 17.8197L19.8896 13.0883C19.6201 11.2967 17.9789 9.94531 16.0717 9.94531H7.98256C6.05915 9.94531 4.45496 11.255 4.1716 13.0477L3.20007 17.7912C3.03236 18.8462 3.35621 19.9154 4.08948 20.7256C4.82392 21.5346 5.89029 21.999 7.01449 21.999H16.9866C18.1062 21.999 19.1679 21.539 19.9 20.7365C20.6333 19.9352 20.9629 18.8714 20.8045 17.8197ZM18.378 19.4818C18.0275 19.8649 17.5209 20.0845 16.9866 20.0845H7.01449C6.47784 20.0845 5.97009 19.8627 5.61965 19.4763C5.2692 19.091 5.11422 18.5805 5.19171 18.0887L6.16209 13.3463C6.29856 12.4845 7.06423 11.8588 7.98256 11.8588H16.0717C16.982 11.8588 17.765 12.5042 17.8957 13.3704L18.8094 18.0898C18.8834 18.5915 18.7261 19.0986 18.378 19.4818Z" fill="#8295B5"/>
<path d="M14.4475 7.62305H9.55225V9.94625H14.4475V7.62305Z" fill="#8295B5"/>
</svg>
